<?xml version="1.0" encoding="UTF-8"?>
<svg id="Layer_1" data-name="Layer 1" xmlns="http://www.w3.org/2000/svg" viewBox="0 0 250 90">
  <defs>
    <style>
      .cls-1 {
        fill: #fff;
        stroke-width: 0px;
      }

      .cls-2 {
        opacity: .6;
      }
    </style>
  </defs>
  <g>
    <path class="cls-1" d="M70.65,33.9c-1.46-3.45-3.55-6.55-6.21-9.22-2.66-2.66-5.76-4.75-9.22-6.21-3.58-1.51-7.37-2.28-11.29-2.28s-7.71.77-11.29,2.28c-3.45,1.46-6.55,3.55-9.22,6.21s-4.75,5.76-6.21,9.22c-1.51,3.58-2.28,7.37-2.28,11.29s.77,7.71,2.28,11.29c.55,1.3,1.19,2.54,1.91,3.74,1.2,1.98,2.64,3.82,4.31,5.48.23.23.47.47.72.69,2.5,2.34,5.35,4.19,8.5,5.52,3.58,1.51,7.37,2.28,11.29,2.28s7.71-.77,11.29-2.28c3.15-1.33,6-3.19,8.5-5.52.24-.23.48-.46.72-.69,1.66-1.66,3.1-3.5,4.31-5.48.72-1.19,1.36-2.44,1.91-3.74,1.51-3.58,2.28-7.37,2.28-11.29s-.77-7.71-2.28-11.29ZM68.1,59.1c-1.34,2.33-3.02,4.45-4.95,6.29-5,4.76-11.77,7.68-19.21,7.68s-14.21-2.92-19.21-7.68c-1.94-1.84-3.61-3.96-4.95-6.29-2.36-4.09-3.71-8.84-3.71-13.91,0-15.39,12.46-27.86,27.84-27.88l.04-.07.04.07c15.38.02,27.84,12.5,27.84,27.88,0,5.07-1.35,9.82-3.71,13.91Z"/>
    <path class="cls-1" d="M68.1,59.1c-1.34,2.33-3.02,4.45-4.95,6.29l-19.21-33.28-19.21,33.28c-1.94-1.84-3.61-3.96-4.95-6.29l19.88-34.42,4.25-7.37.04-.07.04.07,4.25,7.37,19.87,34.42Z"/>
    <g class="cls-2">
      <path class="cls-1" d="M43.93,17.24l-.04.07h.08l-.04-.07ZM43.93,17.24l-.04.07h.08l-.04-.07Z"/>
    </g>
    <g>
      <path class="cls-1" d="M13.72,69.56c.84,1.03,1.73,2.02,2.68,2.97.88.88,1.8,1.72,2.75,2.5l-5.43-5.47Z"/>
      <path class="cls-1" d="M79.8,29.85c-1.96-4.64-4.77-8.8-8.34-12.37-3.57-3.57-7.74-6.38-12.37-8.34-4.8-2.03-9.9-3.06-15.15-3.06s-10.35,1.03-15.15,3.06c-4.64,1.96-8.8,4.77-12.37,8.34-3.58,3.58-6.38,7.74-8.34,12.37-2.03,4.8-3.06,9.9-3.06,15.15s1.03,10.35,3.06,15.15c1.44,3.41,3.34,6.56,5.66,9.41l5.43,5.47c2.91,2.41,6.13,4.36,9.63,5.84,4.8,2.03,9.9,3.06,15.15,3.06s10.35-1.03,15.15-3.06c3.49-1.48,6.72-3.44,9.63-5.84.95-.79,1.87-1.62,2.75-2.5.95-.95,1.84-1.94,2.68-2.97,2.32-2.85,4.22-6,5.66-9.41,2.03-4.8,3.06-9.9,3.06-15.15s-1.03-10.35-3.06-15.15ZM73.54,68.52c-1.61,2.02-3.42,3.87-5.4,5.52-6.56,5.48-15,8.77-24.21,8.77s-17.65-3.29-24.21-8.77c-1.98-1.65-3.79-3.5-5.4-5.52-5.14-6.46-8.21-14.63-8.21-23.52C6.12,24.12,23.05,7.18,43.93,7.18s37.82,16.93,37.82,37.82c0,8.89-3.07,17.07-8.21,23.52Z"/>
    </g>
  </g>
  <g>
    <path class="cls-1" d="M112.19,53.59c-2.13,4.92-4.01,9.35-5.04,11.48-.24.49-.61.73-1.34.73-.97,0-2.73-.3-3.64-.73v-.3c3.46-7.47,13.6-30.48,15.61-35.22l-.73-1.7c1.34-.3,3.4-.61,4.13-.61s1.15.43,1.4,1.03c2.79,6.44,8.08,19.43,10.51,24.96,2.49,5.71,4.01,9.47,5.1,11.66v.24c-1.28.43-3.64.67-4.62.67-.79,0-1.21-.36-1.82-1.82-1.34-3.16-2.31-5.59-4.37-10.38h-15.18ZM126.16,49.89c-3.28-8.26-5.4-13.36-6.25-15.48-2.06,4.92-4.01,9.78-6.38,15.48h12.63Z"/>
    <path class="cls-1" d="M155.13,23.84c1.58,0,3.22.61,3.77,1.34.24,1.15-.79,3.04-2.06,2.79-.61-.18-1.4-.36-2.06-.36-3.04,0-5.59,2.67-5.47,11.23,1.03,0,6.74.12,8.2-.12-.18,1.34-.91,2.37-1.64,2.91-.79.61-3.16.73-6.62.73-.06,6.19.18,19.55.18,22.95-1.15.3-3.64.49-4.49.49-.61,0-.85-.18-.85-1.03.18-6.5.06-13.85.06-22.41-2.43-.06-3.28-.55-3.28-1.46.73-.85,1.7-1.4,3.28-2.06,0-6.62,1.76-10.2,4.31-12.51,2.19-1.94,4.43-2.49,6.62-2.49h.06Z"/>
    <path class="cls-1" d="M159.68,40.42c.43-.91,2.19-2.25,3.28-2.25,1.76,0,2.85,2.19,2.85,6.07,1.88-4.01,4.55-6.07,7.35-6.07,1.21,0,2.31.55,2.73.97.24.55.18,1.64-.24,2.37-.18.91-1.09,1.88-1.76,1.94-.91-.36-1.64-.49-2.43-.49-1.34,0-3.34,1.21-4.62,4.19-.43,1.09-.67,1.94-.67,3.28v13.66c0,.91-.18,1.34-1.09,1.46-1.46.18-2.91.24-4.19.24.12-2.19.18-5.77.18-11.17v-10.14c0-1.88-.3-3.16-1.4-3.83v-.24Z"/>
    <path class="cls-1" d="M183.91,25.84c1.64,0,2.73,1.28,2.73,2.98s-1.15,3.1-2.91,3.1c-1.64,0-2.91-1.03-2.91-2.98,0-2.13,1.76-3.1,3.04-3.1h.06ZM186.34,63.98c0,1.09-.36,1.4-1.28,1.52-.79.18-2.31.24-4.01.3.06-2.49.18-6.01.18-9.53v-10.32c0-3.7-.12-5.59-.24-6.86,1.03-.36,3.58-.61,4.49-.61.61,0,.85.3.85,3.76v21.74Z"/>
    <path class="cls-1" d="M214.45,60.7c0,1.88-1.28,3.58-2.31,4.13-.97.55-3.52,1.34-5.95,1.34-8.44,0-13.06-5.04-13.06-13.54,0-7.65,4.62-14.45,12.63-14.45,6.92,0,9.9,5.16,10.02,10.08,0,.61-.06,1.4-.18,1.88-.18,1.03-3.1,1.76-5.16,2.13-1.64.18-7.71.3-12.08.12.06,6.19,3.83,9.72,9.17,9.72,2.73,0,5.71-.91,6.8-1.52l.12.12ZM205.04,41.33c-3.04,0-6.01,2.73-6.5,7.83,4.37.12,9.84.06,10.93,0,.79-.06,1.28-.55,1.28-1.28.06-3.7-1.82-6.56-5.65-6.56h-.06Z"/>
    <path class="cls-1" d="M239.66,49.28c0-4.74-2.13-7.04-5.65-7.04-3.1,0-5.47,2-6.86,3.64v18.16c0,1.21-.24,1.4-1.28,1.52-1.34.24-2.67.18-4.01.24.12-2.19.18-5.77.18-11.17v-10.32c0-2.19-.3-3.22-1.03-3.77v-.24c.49-.97,2.19-2.13,3.28-2.13,1.88,0,2.43,2.79,2.61,4.49,2.37-2.37,5.65-4.49,8.99-4.49,6.98,0,8.87,5.22,8.87,11.05v8.5c0,3.52.12,6.07.24,7.59-1.28.18-2.91.49-4.49.49-.67,0-.91-.3-.91-.85l.06-15.67Z"/>
  </g>
</svg>